<svg width="40" height="40" viewBox="0 0 40 40" fill="none" xmlns="http://www.w3.org/2000/svg">
<path d="M12.9997 3.33325H26.9997C32.333 3.33325 36.6663 7.66659 36.6663 12.9999V26.9999C36.6663 29.5637 35.6479 32.0224 33.835 33.8353C32.0222 35.6481 29.5634 36.6666 26.9997 36.6666H12.9997C7.66634 36.6666 3.33301 32.3333 3.33301 26.9999V12.9999C3.33301 10.4362 4.35146 7.9774 6.16431 6.16455C7.97716 4.3517 10.4359 3.33325 12.9997 3.33325ZM12.6663 6.66659C11.075 6.66659 9.54892 7.29873 8.4237 8.42394C7.29848 9.54916 6.66634 11.0753 6.66634 12.6666V27.3333C6.66634 30.6499 9.34967 33.3333 12.6663 33.3333H27.333C28.9243 33.3333 30.4504 32.7011 31.5756 31.5759C32.7009 30.4507 33.333 28.9245 33.333 27.3333V12.6666C33.333 9.34992 30.6497 6.66659 27.333 6.66659H12.6663ZM28.7497 9.16658C29.3022 9.16658 29.8321 9.38608 30.2228 9.77678C30.6135 10.1675 30.833 10.6974 30.833 11.2499C30.833 11.8025 30.6135 12.3324 30.2228 12.7231C29.8321 13.1138 29.3022 13.3333 28.7497 13.3333C28.1971 13.3333 27.6672 13.1138 27.2765 12.7231C26.8858 12.3324 26.6663 11.8025 26.6663 11.2499C26.6663 10.6974 26.8858 10.1675 27.2765 9.77678C27.6672 9.38608 28.1971 9.16658 28.7497 9.16658ZM19.9997 11.6666C22.2098 11.6666 24.3294 12.5446 25.8922 14.1074C27.455 15.6702 28.333 17.7898 28.333 19.9999C28.333 22.2101 27.455 24.3297 25.8922 25.8925C24.3294 27.4553 22.2098 28.3333 19.9997 28.3333C17.7895 28.3333 15.6699 27.4553 14.1071 25.8925C12.5443 24.3297 11.6663 22.2101 11.6663 19.9999C11.6663 17.7898 12.5443 15.6702 14.1071 14.1074C15.6699 12.5446 17.7895 11.6666 19.9997 11.6666ZM19.9997 14.9999C18.6736 14.9999 17.4018 15.5267 16.4641 16.4644C15.5265 17.4021 14.9997 18.6738 14.9997 19.9999C14.9997 21.326 15.5265 22.5978 16.4641 23.5355C17.4018 24.4731 18.6736 24.9999 19.9997 24.9999C21.3258 24.9999 22.5975 24.4731 23.5352 23.5355C24.4729 22.5978 24.9997 21.326 24.9997 19.9999C24.9997 18.6738 24.4729 17.4021 23.5352 16.4644C22.5975 15.5267 21.3258 14.9999 19.9997 14.9999Z" fill="#05314E"/>
</svg>
