<svg width="50" height="50" viewBox="0 0 50 50" fill="none" xmlns="http://www.w3.org/2000/svg">
<path d="M20.8337 31.2501L31.6462 25.0001L20.8337 18.7501V31.2501ZM44.917 14.9376C45.1878 15.9167 45.3753 17.2292 45.5003 18.8959C45.6462 20.5626 45.7087 22.0001 45.7087 23.2501L45.8337 25.0001C45.8337 29.5626 45.5003 32.9167 44.917 35.0626C44.3962 36.9376 43.1878 38.1459 41.3128 38.6667C40.3337 38.9376 38.542 39.1251 35.792 39.2501C33.0837 39.3959 30.6045 39.4584 28.3128 39.4584L25.0003 39.5834C16.2712 39.5834 10.8337 39.2501 8.68783 38.6667C6.81283 38.1459 5.60449 36.9376 5.08366 35.0626C4.81283 34.0834 4.62533 32.7709 4.50033 31.1042C4.35449 29.4376 4.29199 28.0001 4.29199 26.7501L4.16699 25.0001C4.16699 20.4376 4.50033 17.0834 5.08366 14.9376C5.60449 13.0626 6.81283 11.8542 8.68783 11.3334C9.66699 11.0626 11.4587 10.8751 14.2087 10.7501C16.917 10.6042 19.3962 10.5417 21.6878 10.5417L25.0003 10.4167C33.7295 10.4167 39.167 10.7501 41.3128 11.3334C43.1878 11.8542 44.3962 13.0626 44.917 14.9376Z" fill="#05314E"/>
</svg>
