<svg width="40" height="40" viewBox="0 0 40 40" fill="none" xmlns="http://www.w3.org/2000/svg">
<path d="M19.9998 20.0001C18.1665 20.0001 16.5971 19.3473 15.2915 18.0417C13.9859 16.7362 13.3332 15.1667 13.3332 13.3334C13.3332 11.5001 13.9859 9.93064 15.2915 8.62508C16.5971 7.31953 18.1665 6.66675 19.9998 6.66675C21.8332 6.66675 23.4026 7.31953 24.7082 8.62508C26.0137 9.93064 26.6665 11.5001 26.6665 13.3334C26.6665 15.1667 26.0137 16.7362 24.7082 18.0417C23.4026 19.3473 21.8332 20.0001 19.9998 20.0001ZM6.6665 33.3334V28.6667C6.6665 27.7223 6.90984 26.8545 7.3965 26.0634C7.88317 25.2723 8.52873 24.6679 9.33317 24.2501C11.0554 23.389 12.8054 22.7434 14.5832 22.3134C16.3609 21.8834 18.1665 21.6679 19.9998 21.6667C21.8332 21.6656 23.6387 21.8812 25.4165 22.3134C27.1943 22.7456 28.9443 23.3912 30.6665 24.2501C31.4721 24.6667 32.1182 25.2712 32.6048 26.0634C33.0915 26.8556 33.3343 27.7234 33.3332 28.6667V33.3334H6.6665Z" fill="#05314D"/>
</svg>
