<svg xmlns="http://www.w3.org/2000/svg" width="89.989998mm" height="63.59mm" viewBox="0 0 89.989998 63.590001"><path d="M0 0c12.362-46.137 78.572-68.482 147.883-49.91 69.311 18.572 115.475 71.027 103.113 117.165-12.363 46.137-78.572 68.484-147.882 49.912C33.802 98.595-12.363 46.138 0 0" style="fill:#fff;fill-opacity:1;fill-rule:nonzero;stroke:none" transform="matrix(.35278 0 0 -.35278 .706 43.64)"/><path d="M0 0c11.606-43.313 74.385-64.123 140.22-46.482 65.837 17.641 109.8 67.052 98.194 110.363-11.606 43.312-74.384 64.123-140.22 46.483C32.358 92.723-11.604 43.311 0 0" style="fill:#e54025;fill-opacity:1;fill-rule:nonzero;stroke:none" transform="matrix(.35278 0 0 -.35278 2.926 43.045)"/><path d="M0 0c10.868-40.56 70.944-59.701 134.182-42.757 63.239 16.945 105.694 63.56 94.828 104.119-10.867 40.558-70.943 59.7-134.184 42.757C31.589 87.174-10.867 40.557 0 0" style="fill:#03448d;fill-opacity:1;fill-rule:nonzero;stroke:none" transform="matrix(.35278 0 0 -.35278 4.585 42.6)"/><path d="m0 0-1.899-1.487c-3.887 3.544-10.927 7.369-16.49 5.372-3.801-1.364-6.334-4.558-5.265-8.617 1.219-4.623 6.283-4.162 10.106-4.023l3.53.096c7.371.178 14.829-.661 17.027-9.005C9.047-25.388 4.18-32.999-3.036-35.591c-2.368-.849-4.816-1.175-7.268-1.253-1.135-.037-1.87.007-2.973-.389-.936-.335-1.401-.627-4.426-3.563l-7.014 11.737 1.955 1.504c4.663-4.189 11.657-8.527 18.319-6.133 3.965 1.423 7.284 5.763 6.14 10.104-1.219 4.623-5.997 4.45-9.821 4.31-7.963-.205-17.906-.689-20.432 8.893-1.887 7.159 2.428 13.893 9.204 16.327 2.257.81 4.069 1.029 6.355 1.049.847-.005 1.636-.029 2.46.267 1.377.494 2.953 2.297 3.694 3.608z" style="fill:#fff;fill-opacity:1;fill-rule:nonzero;stroke:none" transform="matrix(.35278 0 0 -.35278 16.895 33.567)"/><path d="m0 0 11.858 4.426-.461 1.748c-3.4-.595-4.668 1.24-5.456 4.229l-5.777 21.9-11.212-6.635.464-1.747c3.372.467 4.934-2.484 5.719-5.471l2.739-10.38c-1.221-1.767-2.525-5.517-4.725-6.097-2.367-.625-4.332.425-4.91 2.623l-5.514 20.911-11.214-6.635.46-1.748c3.373.468 4.644-1.368 5.429-4.356l2.747-10.425c1.237-4.68 4.511-7.735 9.927-6.307 4.002 1.055 6.297 5.609 8.645 8.819z" style="fill:#fff;fill-opacity:1;fill-rule:nonzero;stroke:none" transform="matrix(.35278 0 0 -.35278 28.399 40.272)"/><path d="m0 0-11.213-6.636.461-1.747c3.373.467 4.64-1.368 5.43-4.357l6.805-25.815c1.161-4.398-.472-5.069-2.503-5.605l.462-1.746 15.606 3.699-.46 1.749c-1.692-.447-3.754-.629-4.632 2.697L8.516-32.3l2.026 3.068 6.924-5.868c.697-.599 1.911-1.546 2.15-2.446.296-1.13-.782-1.836-1.725-2.145l.46-1.747 16.523 3.261-.46 1.747c-3.383.015-4.71 1.171-7.127 3.247L15.066-22.611l.485.909c2.393 3.949 5.128 7.985 9.533 9.81l-.431 1.636-14.285-3.043.46-1.748c1.381.245 3.3.508 3.76-1.238.298-1.128-1.13-3.495-1.725-4.435L7.67-29.083Z" style="fill:#fff;fill-opacity:1;fill-rule:nonzero;stroke:none" transform="matrix(.35278 0 0 -.35278 45.854 18.475)"/><path d="M0 0c-.97-1.125-2.345-2.072-3.857-2.281-1.808-.247-4.897.497-7.284.171-5.293-.727-8.96-4.89-7.561-10.188 1.709-6.483 8.875-7.137 14.453-7.483 2.828-.197 7.079-.55 7.957-3.875.623-2.365-1.475-4.018-3.568-4.305-5.296-.726-9.993 1.201-14.071 4.555l-1.931-.906 4.725-7.763c1.423 1.011 3.195 1.606 5.056 1.861 1.16.159 2.372-.085 3.581-.094 5.258-.042 8.324 1.14 10.291 3.515 1.692 2.04 2.316 4.929 1.498 8.03-1.65 6.26-8.177 7.233-13.64 7.362-2.605.05-8.512-.409-9.42 3.03-.593 2.256 1.465 3.823 3.56 4.11 4.599.631 9.843-2.8 13.426-5.638l2.06 1.1z" style="fill:#fff;fill-opacity:1;fill-rule:nonzero;stroke:none" transform="matrix(.35278 0 0 -.35278 70.87 19.73)"/><path d="M0 0c.881 1.919 2.398 3.711 4.485 4.26 3.157.831 4.94-.447 6.411-6.027l2.584-9.803c1.162-4.397-.469-5.068-2.501-5.604l.461-1.746 15.345 4.458-.46 1.748c-1.691-.445-3.64-.599-4.574 2.715L18.004 4.209c-.95 3.607-5.255 7.354-10.33 6.018C4.009 9.26 1.451 5.93-.833 3.157l-1.366 5.186-11.215-6.633.46-1.748c3.375.469 4.642-1.37 5.429-4.356l3.391-12.863c1.162-4.397-.47-5.07-2.502-5.606l.462-1.744 15.205 4.99-.46 1.749c-1.692-.446-3.699-.612-4.574 2.712z" style="fill:#fff;fill-opacity:1;fill-rule:nonzero;stroke:none" transform="matrix(.35278 0 0 -.35278 35.553 29.74)"/><path d="m0 0-.463 1.746c-1.69-.445-3.641-.597-4.575 2.712l-6.432 24.408-11.216-6.635.46-1.747c3.373.466 4.642-1.37 5.429-4.356l2.954-11.203c1.16-4.4-.472-5.07-2.502-5.605l.46-1.748z" style="fill:#fff;fill-opacity:1;fill-rule:nonzero;stroke:none" transform="matrix(.35278 0 0 -.35278 64.435 30.955)"/><path d="M0 0a4.887 4.887 0 0 0 5.984-3.485c.699-2.651-.838-5.286-3.489-5.986A4.892 4.892 0 0 0-3.49-5.983C-4.172-3.39-2.597-.684 0 0" style="fill:#fff;fill-opacity:1;fill-rule:nonzero;stroke:none" transform="matrix(.35278 0 0 -.35278 57.41 15.85)"/><path d="m0 0 5.021-19.04c.847-3.213 4.095-7.766 10.492-7.543 3.641.125 7.156 2.353 8.698 5.193l-1.701 1.192c-1.001-1.003-2.452-2.132-4.069-2.189-3.046-.105-4.34 1.841-4.894 3.927L8.604.299 17.03.59l-.7 2.651-8.305-.286-2.601 9.864-2.273-.081c-.44-5.191-.564-9.291-8.032-10.232l.695-2.651z" style="fill:#fff;fill-opacity:1;fill-rule:nonzero;stroke:none" transform="matrix(.35278 0 0 -.35278 75.26 20.574)"/><path d="M0 0c-1.877-.943-4.041-1.541-7.86-1.372-1.204.053-2.802.147-3.967-.013-1.86-.256-3.633-.849-5.055-1.862L-21.47 4.34l-.497-1.834 4.324-7.234c1.418 1.012 3.193 1.607 5.056 1.861 1.164.16 2.427.124 3.639.115C-4.593-2.783-1.749-1.636 0 0" style="fill:#fff;fill-opacity:1;fill-rule:nonzero;stroke:none" transform="matrix(.35278 0 0 -.35278 72.6 30.72)"/><path d="M0 0c-.447 3.406-4.587 3.423-7.414 3.621-5.58.344-12.763 1.484-14.472 7.969-.19.715-.535 1.559-.551 2.238-.156-1.081-.174-2.258.144-3.459 1.706-6.484 8.612-7.528 14.19-7.871C-5.59 2.322-1.392 2.399 0 0" style="fill:#fff;fill-opacity:1;fill-rule:nonzero;stroke:none" transform="matrix(.35278 0 0 -.35278 71.625 28.747)"/><path d="M0 0c2.521.116 5.176-1.463 8.493-3.39l1.036.942C4.758.088 2.71.736 0 0" style="fill:#fff;fill-opacity:1;fill-rule:nonzero;stroke:none" transform="matrix(.35278 0 0 -.35278 67.293 22.012)"/><path d="m0 0 16.02 3.441 1.099 1.717L1.077 1.846Z" style="fill:#fff;fill-opacity:1;fill-rule:nonzero;stroke:none" transform="matrix(.35278 0 0 -.35278 51.375 34.737)"/><path d="m0 0 15.584 3.779 1.206 1.932L.996 1.825Z" style="fill:#fff;fill-opacity:1;fill-rule:nonzero;stroke:none" transform="matrix(.35278 0 0 -.35278 44.732 36.306)"/><path d="M0 0c.292 1.781-1.29 1.773-3.103 1.295l-.586 2.225.942 1.552.544-2.062c1.383.244 2.652.633 2.955-.521C.955 1.711.508.958 0 0" style="fill:#fff;fill-opacity:1;fill-rule:nonzero;stroke:none" transform="matrix(.35278 0 0 -.35278 49.802 25.442)"/><path d="M0 0c.033.567-.525.875-2.254 2.368l-2.642 2.591.856 1.292 2.893-2.868C.346 2.069.725 1.907.916 1.471 1.191.839.605.382 0 0" style="fill:#fff;fill-opacity:1;fill-rule:nonzero;stroke:none" transform="matrix(.35278 0 0 -.35278 51.42 32.163)"/><path d="M0 0c-2.002-2.025-4.777-3.575-7.419-4.525-2.322-.831-2.968-.794-5.369-.87-1.115-.035-2.574.318-4.209-.551-1.67-.889-2.573-1.886-4.678-4.083l-7.257 11.601L-29.065 0l7.401-12.219c2.476 2.613 3.408 3.965 5.291 4.739 1.777.73 2.439.506 3.553.542 2.403.077 2.809.202 5.13 1.035C-4.691-4.827-2.176-2.839 0 0" style="fill:#fff;fill-opacity:1;fill-rule:nonzero;stroke:none" transform="matrix(.35278 0 0 -.35278 18.21 45.478)"/><path d="M0 0c-.048 5.096-5.325 5.084-8.983 4.951-7.965-.206-18.223-.775-20.752 8.809-.078.3-.619 2.664-.573 3.009-.265-1.046.324-3.232.615-4.334 2.527-9.583 12.469-9.099 20.433-8.893C-5.622 3.675-1.445 3.958 0 0" style="fill:#fff;fill-opacity:1;fill-rule:nonzero;stroke:none" transform="matrix(.35278 0 0 -.35278 16.811 43.034)"/><path d="M0 0c-3.699 3.367-10.04 7.076-15.33 5.175-1.871-.671-3.479-2.24-3.612-3.973.309.974 2.253 2.241 3.35 2.635C-10.301 5.738-3.961 2.028-.261-1.34z" style="fill:#fff;fill-opacity:1;fill-rule:nonzero;stroke:none" transform="matrix(.35278 0 0 -.35278 15.953 34.845)"/><path d="m0 0 .959-3.641L11.801.485l.631 1.763-10.7-3.996-.809 3.073Z" style="fill:#fff;fill-opacity:1;fill-rule:nonzero;stroke:none" transform="matrix(.35278 0 0 -.35278 27.284 40.741)"/><path d="m0 0 14.469 4.358 1.078 1.85L.73 1.781Z" style="fill:#fff;fill-opacity:1;fill-rule:nonzero;stroke:none" transform="matrix(.35278 0 0 -.35278 38.848 38.065)"/><path d="m0 0 14.03 4.574 1.275 1.96L.73 1.779Z" style="fill:#fff;fill-opacity:1;fill-rule:nonzero;stroke:none" transform="matrix(.35278 0 0 -.35278 32.634 40.071)"/><path d="m0 0 2.511-9.519c.317-1.201.328-1.406.279-2.125 1.029.706 1.13 1.325.45 3.904L.732 1.781c-.787 2.987-1.904 5.102-5.276 4.635l-.632 2.393-.834-1.59.698-2.65C-1.899 5.105-.786 2.988 0 0" style="fill:#fff;fill-opacity:1;fill-rule:nonzero;stroke:none" transform="matrix(.35278 0 0 -.35278 32.074 32.963)"/><path d="M0 0a9.022 9.022 0 0 0-2.765-.557c-6.393-.22-9.928 4.55-10.778 7.763l-5.019 19.038-3.958-.123-.847 3.214c-.365-.07-.459-1.226-.869-1.275l.822-3.124 3.781.163 5.021-19.04c.845-3.214 4.242-7.767 10.637-7.544C-2.611-1.439-1.043-.714 0 0" style="fill:#fff;fill-opacity:1;fill-rule:nonzero;stroke:none" transform="matrix(.35278 0 0 -.35278 81.205 30.542)"/><path d="m0 0-5.263-.234.302-1.142 4.206.11z" style="fill:#fff;fill-opacity:1;fill-rule:nonzero;stroke:none" transform="matrix(.35278 0 0 -.35278 81.114 20.998)"/><path d="m0 0 15.752 2.683 1.174 1.796L1.122 1.79Z" style="fill:#fff;fill-opacity:1;fill-rule:nonzero;stroke:none" transform="matrix(.35278 0 0 -.35278 57.895 33.383)"/><path d="M0 0c-.757-.982-.967-2.182-.655-3.361.676-2.571 2.748-3.824 5.339-3.14 1.07.281 2.111.933 2.687 1.711a5.375 5.375 0 0 0-1.269-.526A4.887 4.887 0 0 0 0 0" style="fill:#fff;fill-opacity:1;fill-rule:nonzero;stroke:none" transform="matrix(.35278 0 0 -.35278 55.67 18.042)"/><path d="M0 0c.316-1.198.348-1.481.298-2.199 1.03.705 1.112 1.402.432 3.982l-.003-.002-1.69 6.41c-1.471 5.583-2.255 7.215-5.244 6.725-1.503-.249-2.233-1.477-2.603-2.048.533.365 1.065.522 1.762.707 3.441.907 3.884-1.582 5.356-7.163L-.001 0" style="fill:#fff;fill-opacity:1;fill-rule:nonzero;stroke:none" transform="matrix(.35278 0 0 -.35278 39.254 34.275)"/><path d="M0 0c.681-2.578.445-3.111-.583-3.815.048.716.038.923-.278 2.122l.004-.012-5.9 22.388c-.789 2.988-1.941 5.024-5.316 4.555l-.701 2.676.846 1.61.628-2.378c3.385.455 4.612-1.771 5.4-4.76z" style="fill:#fff;fill-opacity:1;fill-rule:nonzero;stroke:none" transform="matrix(.35278 0 0 -.35278 45.484 31.859)"/><path d="m0 0-2.144 8.171c-.789 2.986-2.057 5.737-5.434 5.269l-.629 2.394-.835-1.59.698-2.649c3.413.536 4.698-2.265 5.486-5.252l2.05-7.82z" style="fill:#fff;fill-opacity:1;fill-rule:nonzero;stroke:none" transform="matrix(.35278 0 0 -.35278 26.826 37.521)"/><path d="M0 0c-.788 2.986-1.855 4.969-5.227 4.502l-.631 2.391-.836-1.588.7-2.648c3.411.532 4.325-1.542 5.113-4.529l2.588-9.858c.664-3.162 4.535-8.059 10.397-6.545 2.97.767 4.635 2.579 6.264 4.889-1.54-1.818-3.172-2.551-5.451-3.154-5.413-1.425-9.124 2.047-10.358 6.726z" style="fill:#fff;fill-opacity:1;fill-rule:nonzero;stroke:none" transform="matrix(.35278 0 0 -.35278 19.847 36.777)"/><path d="M0 0c-.788 2.989-1.795 4.677-5.208 4.143l-.699 2.649.837 1.59.628-2.391c3.376.467 4.409-1.389 5.196-4.377l2.052-7.835-.001.007c.68-2.578.647-3.169-.383-3.875.053.72-.079 1.222-.395 2.422z" style="fill:#fff;fill-opacity:1;fill-rule:nonzero;stroke:none" transform="matrix(.35278 0 0 -.35278 57.649 26.788)"/><path d="m0 0-1.899-1.487c-3.887 3.544-10.927 7.369-16.49 5.372-3.801-1.364-6.334-4.558-5.265-8.617 1.219-4.623 6.283-4.162 10.106-4.023l3.53.096c7.371.178 14.829-.661 17.027-9.005C9.047-25.388 4.18-32.999-3.036-35.591c-2.368-.849-4.816-1.175-7.268-1.253-1.135-.037-1.87.007-2.973-.389-.936-.335-1.401-.627-4.426-3.563l-7.014 11.737 1.955 1.504c4.663-4.189 11.657-8.527 18.319-6.133 3.965 1.423 7.284 5.763 6.14 10.104-1.219 4.623-5.997 4.45-9.821 4.31-7.963-.205-17.906-.689-20.432 8.893-1.887 7.159 2.428 13.893 9.204 16.327 2.257.81 4.069 1.029 6.355 1.049.847-.005 1.636-.029 2.46.267 1.377.494 2.953 2.297 3.694 3.608z" style="fill:#fff;fill-opacity:1;fill-rule:nonzero;stroke:none" transform="matrix(.35278 0 0 -.35278 16.895 33.567)"/><path d="m0 0 11.858 4.426-.461 1.748c-3.4-.595-4.668 1.24-5.456 4.229l-5.777 21.9-11.212-6.635.464-1.747c3.372.467 4.934-2.484 5.719-5.471l2.739-10.38c-1.221-1.767-2.525-5.517-4.725-6.097-2.367-.625-4.332.425-4.91 2.623l-5.514 20.911-11.214-6.635.46-1.748c3.373.468 4.644-1.368 5.429-4.356l2.747-10.425c1.237-4.68 4.511-7.735 9.927-6.307 4.002 1.055 6.297 5.609 8.645 8.819z" style="fill:#fff;fill-opacity:1;fill-rule:nonzero;stroke:none" transform="matrix(.35278 0 0 -.35278 28.399 40.272)"/><path d="m0 0-11.213-6.636.461-1.747c3.373.467 4.64-1.368 5.43-4.357l6.805-25.815c1.161-4.398-.472-5.069-2.503-5.605l.462-1.746 15.606 3.699-.46 1.749c-1.692-.447-3.754-.629-4.632 2.697L8.516-32.3l2.026 3.068 6.924-5.868c.697-.599 1.911-1.546 2.15-2.446.296-1.13-.782-1.836-1.725-2.145l.46-1.747 16.523 3.261-.46 1.747c-3.383.015-4.71 1.171-7.127 3.247L15.066-22.611l.485.909c2.393 3.949 5.128 7.985 9.533 9.81l-.431 1.636-14.285-3.043.46-1.748c1.381.245 3.3.508 3.76-1.238.298-1.128-1.13-3.495-1.725-4.435L7.67-29.083Z" style="fill:#fff;fill-opacity:1;fill-rule:nonzero;stroke:none" transform="matrix(.35278 0 0 -.35278 45.854 18.475)"/><path d="M0 0c-.97-1.125-2.345-2.072-3.857-2.281-1.808-.247-4.897.497-7.284.171-5.293-.727-8.96-4.89-7.561-10.188 1.709-6.483 8.875-7.137 14.453-7.483 2.828-.197 7.079-.55 7.957-3.875.623-2.365-1.475-4.018-3.568-4.305-5.296-.726-9.993 1.201-14.071 4.555l-1.931-.906 4.725-7.763c1.423 1.011 3.195 1.606 5.056 1.861 1.16.159 2.372-.085 3.581-.094 5.258-.042 8.324 1.14 10.291 3.515 1.692 2.04 2.316 4.929 1.498 8.03-1.65 6.26-8.177 7.233-13.64 7.362-2.605.05-8.512-.409-9.42 3.03-.593 2.256 1.465 3.823 3.56 4.11 4.599.631 9.843-2.8 13.426-5.638l2.06 1.1z" style="fill:#fff;fill-opacity:1;fill-rule:nonzero;stroke:none" transform="matrix(.35278 0 0 -.35278 70.87 19.73)"/><path d="M0 0c.881 1.919 2.398 3.711 4.485 4.26 3.157.831 4.94-.447 6.411-6.027l2.584-9.803c1.162-4.397-.469-5.068-2.501-5.604l.461-1.746 15.345 4.458-.46 1.748c-1.691-.445-3.64-.599-4.574 2.715L18.004 4.209c-.95 3.607-5.255 7.354-10.33 6.018C4.009 9.26 1.451 5.93-.833 3.157l-1.366 5.186-11.215-6.633.46-1.748c3.375.469 4.642-1.37 5.429-4.356l3.391-12.863c1.162-4.397-.47-5.07-2.502-5.606l.462-1.744 15.205 4.99-.46 1.749c-1.692-.446-3.699-.612-4.574 2.712z" style="fill:#fff;fill-opacity:1;fill-rule:nonzero;stroke:none" transform="matrix(.35278 0 0 -.35278 35.553 29.74)"/><path d="m0 0-.463 1.746c-1.69-.445-3.641-.597-4.575 2.712l-6.432 24.408-11.216-6.635.46-1.747c3.373.466 4.642-1.37 5.429-4.356l2.954-11.203c1.16-4.4-.472-5.07-2.502-5.605l.46-1.748z" style="fill:#fff;fill-opacity:1;fill-rule:nonzero;stroke:none" transform="matrix(.35278 0 0 -.35278 64.435 30.955)"/><path d="M0 0a4.887 4.887 0 0 0 5.984-3.485c.699-2.651-.838-5.286-3.489-5.986A4.892 4.892 0 0 0-3.49-5.983C-4.172-3.39-2.597-.684 0 0" style="fill:#fff;fill-opacity:1;fill-rule:nonzero;stroke:none" transform="matrix(.35278 0 0 -.35278 57.41 15.85)"/><path d="m0 0 5.021-19.04c.847-3.213 4.095-7.766 10.492-7.543 3.641.125 7.156 2.353 8.698 5.193l-1.701 1.192c-1.001-1.003-2.452-2.132-4.069-2.189-3.046-.105-4.34 1.841-4.894 3.927L8.604.299 17.03.59l-.7 2.651-8.305-.286-2.601 9.864-2.273-.081c-.44-5.191-.564-9.291-8.032-10.232l.695-2.651z" style="fill:#fff;fill-opacity:1;fill-rule:nonzero;stroke:none" transform="matrix(.35278 0 0 -.35278 75.26 20.574)"/><path d="M0 0c-1.877-.943-4.041-1.541-7.86-1.372-1.204.053-2.802.147-3.967-.013-1.86-.256-3.633-.849-5.055-1.862L-21.47 4.34l-.497-1.834 4.324-7.234c1.418 1.012 3.193 1.607 5.056 1.861 1.164.16 2.427.124 3.639.115C-4.593-2.783-1.749-1.636 0 0" style="fill:#fff;fill-opacity:1;fill-rule:nonzero;stroke:none" transform="matrix(.35278 0 0 -.35278 72.6 30.72)"/><path d="M0 0c-.447 3.406-4.587 3.423-7.414 3.621-5.58.344-12.763 1.484-14.472 7.969-.19.715-.535 1.559-.551 2.238-.156-1.081-.174-2.258.144-3.459 1.706-6.484 8.612-7.528 14.19-7.871C-5.59 2.322-1.392 2.399 0 0" style="fill:#fff;fill-opacity:1;fill-rule:nonzero;stroke:none" transform="matrix(.35278 0 0 -.35278 71.625 28.747)"/><path d="M0 0c2.521.116 5.176-1.463 8.493-3.39l1.036.942C4.758.088 2.71.736 0 0" style="fill:#fff;fill-opacity:1;fill-rule:nonzero;stroke:none" transform="matrix(.35278 0 0 -.35278 67.293 22.012)"/><path d="m0 0 16.02 3.441 1.099 1.717L1.077 1.846Z" style="fill:#fff;fill-opacity:1;fill-rule:nonzero;stroke:none" transform="matrix(.35278 0 0 -.35278 51.375 34.737)"/><path d="m0 0 15.584 3.779 1.206 1.932L.996 1.825Z" style="fill:#fff;fill-opacity:1;fill-rule:nonzero;stroke:none" transform="matrix(.35278 0 0 -.35278 44.732 36.306)"/><path d="M0 0c.292 1.781-1.29 1.773-3.103 1.295l-.586 2.225.942 1.552.544-2.062c1.383.244 2.652.633 2.955-.521C.955 1.711.508.958 0 0" style="fill:#fff;fill-opacity:1;fill-rule:nonzero;stroke:none" transform="matrix(.35278 0 0 -.35278 49.802 25.442)"/><path d="M0 0c.033.567-.525.875-2.254 2.368l-2.642 2.591.856 1.292 2.893-2.868C.346 2.069.725 1.907.916 1.471 1.191.839.605.382 0 0" style="fill:#fff;fill-opacity:1;fill-rule:nonzero;stroke:none" transform="matrix(.35278 0 0 -.35278 51.42 32.163)"/><path d="M0 0c-2.002-2.025-4.777-3.575-7.419-4.525-2.322-.831-2.968-.794-5.369-.87-1.115-.035-2.574.318-4.209-.551-1.67-.889-2.573-1.886-4.678-4.083l-7.257 11.601L-29.065 0l7.401-12.219c2.476 2.613 3.408 3.965 5.291 4.739 1.777.73 2.439.506 3.553.542 2.403.077 2.809.202 5.13 1.035C-4.691-4.827-2.176-2.839 0 0" style="fill:#fff;fill-opacity:1;fill-rule:nonzero;stroke:none" transform="matrix(.35278 0 0 -.35278 18.21 45.478)"/><path d="M0 0c-.048 5.096-5.325 5.084-8.983 4.951-7.965-.206-18.223-.775-20.752 8.809-.078.3-.619 2.664-.573 3.009-.265-1.046.324-3.232.615-4.334 2.527-9.583 12.469-9.099 20.433-8.893C-5.622 3.675-1.445 3.958 0 0" style="fill:#fff;fill-opacity:1;fill-rule:nonzero;stroke:none" transform="matrix(.35278 0 0 -.35278 16.811 43.034)"/><path d="M0 0c-3.699 3.367-10.04 7.076-15.33 5.175-1.871-.671-3.479-2.24-3.612-3.973.309.974 2.253 2.241 3.35 2.635C-10.301 5.738-3.961 2.028-.261-1.34z" style="fill:#fff;fill-opacity:1;fill-rule:nonzero;stroke:none" transform="matrix(.35278 0 0 -.35278 15.953 34.845)"/><path d="m0 0 .959-3.641L11.801.485l.631 1.763-10.7-3.996-.809 3.073Z" style="fill:#fff;fill-opacity:1;fill-rule:nonzero;stroke:none" transform="matrix(.35278 0 0 -.35278 27.284 40.741)"/><path d="m0 0 14.469 4.358 1.078 1.85L.73 1.781Z" style="fill:#fff;fill-opacity:1;fill-rule:nonzero;stroke:none" transform="matrix(.35278 0 0 -.35278 38.848 38.065)"/><path d="m0 0 14.03 4.574 1.275 1.96L.73 1.779Z" style="fill:#fff;fill-opacity:1;fill-rule:nonzero;stroke:none" transform="matrix(.35278 0 0 -.35278 32.634 40.071)"/><path d="m0 0 2.511-9.519c.317-1.201.328-1.406.279-2.125 1.029.706 1.13 1.325.45 3.904L.732 1.781c-.787 2.987-1.904 5.102-5.276 4.635l-.632 2.393-.834-1.59.698-2.65C-1.899 5.105-.786 2.988 0 0" style="fill:#fff;fill-opacity:1;fill-rule:nonzero;stroke:none" transform="matrix(.35278 0 0 -.35278 32.074 32.963)"/><path d="M0 0a9.022 9.022 0 0 0-2.765-.557c-6.393-.22-9.928 4.55-10.778 7.763l-5.019 19.038-3.958-.123-.847 3.214c-.365-.07-.459-1.226-.869-1.275l.822-3.124 3.781.163 5.021-19.04c.845-3.214 4.242-7.767 10.637-7.544C-2.611-1.439-1.043-.714 0 0" style="fill:#fff;fill-opacity:1;fill-rule:nonzero;stroke:none" transform="matrix(.35278 0 0 -.35278 81.205 30.542)"/><path d="m0 0-5.263-.234.302-1.142 4.206.11z" style="fill:#fff;fill-opacity:1;fill-rule:nonzero;stroke:none" transform="matrix(.35278 0 0 -.35278 81.114 20.998)"/><path d="m0 0 15.752 2.683 1.174 1.796L1.122 1.79Z" style="fill:#fff;fill-opacity:1;fill-rule:nonzero;stroke:none" transform="matrix(.35278 0 0 -.35278 57.895 33.383)"/><path d="M0 0c-.757-.982-.967-2.182-.655-3.361.676-2.571 2.748-3.824 5.339-3.14 1.07.281 2.111.933 2.687 1.711a5.375 5.375 0 0 0-1.269-.526A4.887 4.887 0 0 0 0 0" style="fill:#fff;fill-opacity:1;fill-rule:nonzero;stroke:none" transform="matrix(.35278 0 0 -.35278 55.67 18.042)"/><path d="M0 0c.316-1.198.348-1.481.298-2.199 1.03.705 1.112 1.402.432 3.982l-.003-.002-1.69 6.41c-1.471 5.583-2.255 7.215-5.244 6.725-1.503-.249-2.233-1.477-2.603-2.048.533.365 1.065.522 1.762.707 3.441.907 3.884-1.582 5.356-7.163L-.001 0" style="fill:#fff;fill-opacity:1;fill-rule:nonzero;stroke:none" transform="matrix(.35278 0 0 -.35278 39.254 34.275)"/><path d="M0 0c.681-2.578.445-3.111-.583-3.815.048.716.038.923-.278 2.122l.004-.012-5.9 22.388c-.789 2.988-1.941 5.024-5.316 4.555l-.701 2.676.846 1.61.628-2.378c3.385.455 4.612-1.771 5.4-4.76z" style="fill:#fff;fill-opacity:1;fill-rule:nonzero;stroke:none" transform="matrix(.35278 0 0 -.35278 45.484 31.859)"/><path d="m0 0-2.144 8.171c-.789 2.986-2.057 5.737-5.434 5.269l-.629 2.394-.835-1.59.698-2.649c3.413.536 4.698-2.265 5.486-5.252l2.05-7.82z" style="fill:#fff;fill-opacity:1;fill-rule:nonzero;stroke:none" transform="matrix(.35278 0 0 -.35278 26.826 37.521)"/><path d="M0 0c-.788 2.986-1.855 4.969-5.227 4.502l-.631 2.391-.836-1.588.7-2.648c3.411.532 4.325-1.542 5.113-4.529l2.588-9.858c.664-3.162 4.535-8.059 10.397-6.545 2.97.767 4.635 2.579 6.264 4.889-1.54-1.818-3.172-2.551-5.451-3.154-5.413-1.425-9.124 2.047-10.358 6.726z" style="fill:#fff;fill-opacity:1;fill-rule:nonzero;stroke:none" transform="matrix(.35278 0 0 -.35278 19.847 36.777)"/><path d="M0 0c-.788 2.989-1.795 4.677-5.208 4.143l-.699 2.649.837 1.59.628-2.391c3.376.467 4.409-1.389 5.196-4.377l2.052-7.835-.001.007c.68-2.578.647-3.169-.383-3.875.053.72-.079 1.222-.395 2.422z" style="fill:#fff;fill-opacity:1;fill-rule:nonzero;stroke:none" transform="matrix(.35278 0 0 -.35278 57.649 26.788)"/></svg>